<svg xmlns="http://www.w3.org/2000/svg" viewbox="0 0 500 500" width="500" height="500"><defs></defs><g>
<rect fill="#ffffff" x="0" y="0" width="500" height="500"/>
<g>
	<g>
		<path d="M0.000000,0.000000C0.000000,0.000000 500.000000,0.000000 500.000000,0.000000 C500.000000,0.000000 500.000000,500.000000 500.000000,500.000000 C500.000000,500.000000 0.000000,500.000000 0.000000,500.000000 C0.000000,500.000000 0.000000,0.000000 0.000000,0.000000 Z" transform="" fill="#000000" stroke="#000000" stroke-width="2"/>
		<path d="M21.250000,238.750000C21.250000,238.750000 21.250000,51.250000 21.250000,51.250000 C21.250000,51.250000 133.750000,51.250000 133.750000,51.250000 C133.750000,51.250000 133.750000,88.750000 133.750000,88.750000 C133.750000,88.750000 171.250000,88.750000 171.250000,88.750000 C171.250000,88.750000 171.250000,201.250000 171.250000,201.250000 C171.250000,201.250000 133.750000,201.250000 133.750000,201.250000 C133.750000,201.250000 133.750000,238.750000 133.750000,238.750000 C133.750000,238.750000 21.250000,238.750000 21.250000,238.750000 C21.250000,238.750000 21.250000,238.750000 21.250000,238.750000 ZM58.750000,126.250000C58.750000,126.250000 132.250000,126.250000 132.250000,126.250000 C132.250000,126.250000 132.250000,88.750000 132.250000,88.750000 C132.250000,88.750000 58.750000,88.750000 58.750000,88.750000 C58.750000,88.750000 58.750000,126.250000 58.750000,126.250000 C58.750000,126.250000 58.750000,126.250000 58.750000,126.250000 ZM58.750000,201.250000C58.750000,201.250000 132.250000,201.250000 132.250000,201.250000 C132.250000,201.250000 132.250000,163.750000 132.250000,163.750000 C132.250000,163.750000 58.750000,163.750000 58.750000,163.750000 C58.750000,163.750000 58.750000,201.250000 58.750000,201.250000 C58.750000,201.250000 58.750000,201.250000 58.750000,201.250000 ZM201.250000,238.750000C201.250000,238.750000 201.250000,51.250000 201.250000,51.250000 C201.250000,51.250000 238.750000,51.250000 238.750000,51.250000 C238.750000,51.250000 238.750000,238.750000 238.750000,238.750000 C238.750000,238.750000 201.250000,238.750000 201.250000,238.750000 C201.250000,238.750000 201.250000,238.750000 201.250000,238.750000 ZM291.250000,238.750000C291.250000,238.750000 291.250000,51.250000 291.250000,51.250000 C291.250000,51.250000 328.750000,51.250000 328.750000,51.250000 C328.750000,51.250000 328.750000,88.750000 328.750000,88.750000 C328.750000,88.750000 366.250000,88.750000 366.250000,88.750000 C366.250000,88.750000 366.250000,126.250000 366.250000,126.250000 C366.250000,126.250000 403.750000,126.250000 403.750000,126.250000 C403.750000,126.250000 403.750000,163.750000 403.750000,163.750000 C403.750000,163.750000 441.250000,163.750000 441.250000,163.750000 C441.250000,163.750000 441.250000,51.250000 441.250000,51.250000 C441.250000,51.250000 478.750000,51.250000 478.750000,51.250000 C478.750000,51.250000 478.750000,238.750000 478.750000,238.750000 C478.750000,238.750000 441.250000,238.750000 441.250000,238.750000 C441.250000,238.750000 441.250000,201.250000 441.250000,201.250000 C441.250000,201.250000 403.750000,201.250000 403.750000,201.250000 C403.750000,201.250000 403.750000,163.750000 403.750000,163.750000 C403.750000,163.750000 366.250000,163.750000 366.250000,163.750000 C366.250000,163.750000 366.250000,126.250000 366.250000,126.250000 C366.250000,126.250000 328.750000,126.250000 328.750000,126.250000 C328.750000,126.250000 328.750000,238.750000 328.750000,238.750000 C328.750000,238.750000 291.250000,238.750000 291.250000,238.750000 C291.250000,238.750000 291.250000,238.750000 291.250000,238.750000 ZM58.750000,298.750000C58.750000,298.750000 58.750000,261.250000 58.750000,261.250000 C58.750000,261.250000 171.250000,261.250000 171.250000,261.250000 C171.250000,261.250000 171.250000,298.750000 171.250000,298.750000 C171.250000,298.750000 58.750000,298.750000 58.750000,298.750000 C58.750000,298.750000 58.750000,298.750000 58.750000,298.750000 ZM21.250000,411.250000C21.250000,411.250000 21.250000,298.750000 21.250000,298.750000 C21.250000,298.750000 58.750000,298.750000 58.750000,298.750000 C58.750000,298.750000 58.750000,411.250000 58.750000,411.250000 C58.750000,411.250000 21.250000,411.250000 21.250000,411.250000 C21.250000,411.250000 21.250000,411.250000 21.250000,411.250000 ZM133.750000,411.250000C133.750000,411.250000 133.750000,373.750000 133.750000,373.750000 C133.750000,373.750000 96.250000,373.750000 96.250000,373.750000 C96.250000,373.750000 96.250000,336.250000 96.250000,336.250000 C96.250000,336.250000 171.250000,336.250000 171.250000,336.250000 C171.250000,336.250000 171.250000,411.250000 171.250000,411.250000 C171.250000,411.250000 133.750000,411.250000 133.750000,411.250000 C133.750000,411.250000 133.750000,411.250000 133.750000,411.250000 ZM58.750000,448.750000C58.750000,448.750000 58.750000,411.250000 58.750000,411.250000 C58.750000,411.250000 133.750000,411.250000 133.750000,411.250000 C133.750000,411.250000 133.750000,448.750000 133.750000,448.750000 C133.750000,448.750000 58.750000,448.750000 58.750000,448.750000 C58.750000,448.750000 58.750000,448.750000 58.750000,448.750000 ZM238.750000,448.750000C238.750000,448.750000 238.750000,411.250000 238.750000,411.250000 C238.750000,411.250000 201.250000,411.250000 201.250000,411.250000 C201.250000,411.250000 201.250000,298.750000 201.250000,298.750000 C201.250000,298.750000 238.750000,298.750000 238.750000,298.750000 C238.750000,298.750000 238.750000,261.250000 238.750000,261.250000 C238.750000,261.250000 313.750000,261.250000 313.750000,261.250000 C313.750000,261.250000 313.750000,298.750000 313.750000,298.750000 C313.750000,298.750000 351.250000,298.750000 351.250000,298.750000 C351.250000,298.750000 351.250000,411.250000 351.250000,411.250000 C351.250000,411.250000 313.750000,411.250000 313.750000,411.250000 C313.750000,411.250000 313.750000,448.750000 313.750000,448.750000 C313.750000,448.750000 238.750000,448.750000 238.750000,448.750000 C238.750000,448.750000 238.750000,448.750000 238.750000,448.750000 ZM238.750000,409.750000C238.750000,409.750000 313.750000,409.750000 313.750000,409.750000 C313.750000,409.750000 313.750000,300.250000 313.750000,300.250000 C313.750000,300.250000 238.750000,300.250000 238.750000,300.250000 C238.750000,300.250000 238.750000,409.750000 238.750000,409.750000 C238.750000,409.750000 238.750000,409.750000 238.750000,409.750000 Z" transform="" fill="#ffffff"/>
		<path d="M378.750000,402.737671C378.750000,402.737671 378.750000,377.737671 378.750000,377.737671 C378.750000,377.737671 391.250000,377.737671 391.250000,377.737671 C391.250000,377.737671 391.250000,365.237671 391.250000,365.237671 C391.250000,365.237671 403.750000,365.237671 403.750000,365.237671 C403.750000,365.237671 403.750000,352.737671 403.750000,352.737671 C403.750000,352.737671 366.250000,352.737671 366.250000,352.737671 C366.250000,352.737671 366.250000,340.237671 366.250000,340.237671 C366.250000,340.237671 416.250000,340.237671 416.250000,340.237671 C416.250000,340.237671 416.250000,365.237671 416.250000,365.237671 C416.250000,365.237671 403.750000,365.237671 403.750000,365.237671 C403.750000,365.237671 403.750000,377.737671 403.750000,377.737671 C403.750000,377.737671 391.250000,377.737671 391.250000,377.737671 C391.250000,377.737671 391.250000,402.737671 391.250000,402.737671 C391.250000,402.737671 378.750000,402.737671 378.750000,402.737671 C378.750000,402.737671 378.750000,402.737671 378.750000,402.737671 ZM478.750000,390.237671C478.750000,390.237671 478.750000,377.737671 478.750000,377.737671 C478.750000,377.737671 441.250000,377.737671 441.250000,377.737671 C441.250000,377.737671 441.250000,340.237671 441.250000,340.237671 C441.250000,340.237671 491.250000,340.237671 491.250000,340.237671 C491.250000,340.237671 491.250000,352.737671 491.250000,352.737671 C491.250000,352.737671 453.750000,352.737671 453.750000,352.737671 C453.750000,352.737671 453.750000,365.237671 453.750000,365.237671 C453.750000,365.237671 478.750000,365.237671 478.750000,365.237671 C478.750000,365.237671 478.750000,377.737671 478.750000,377.737671 C478.750000,377.737671 491.250000,377.737671 491.250000,377.737671 C491.250000,377.737671 491.250000,390.237671 491.250000,390.237671 C491.250000,390.237671 478.750000,390.237671 478.750000,390.237671 C478.750000,390.237671 478.750000,390.237671 478.750000,390.237671 ZM441.250000,402.737671C441.250000,402.737671 441.250000,390.237671 441.250000,390.237671 C441.250000,390.237671 478.750000,390.237671 478.750000,390.237671 C478.750000,390.237671 478.750000,402.737671 478.750000,402.737671 C478.750000,402.737671 441.250000,402.737671 441.250000,402.737671 C441.250000,402.737671 441.250000,402.737671 441.250000,402.737671 Z" transform="" fill="#ffffff"/>
	</g>
</g></g></svg>